<svg id="Слой_1" data-name="Слой 1" xmlns="http://www.w3.org/2000/svg" viewBox="0 0 336.03 162.72"><defs><style>.cls-1{fill:#fed330;}.cls-2{fill:#0984e3;}.cls-3{fill:#20bf6b;}.cls-4{fill:#eb2f06;}.cls-5{fill:none;}</style></defs><path d="M932.3,534.38a43.59,43.59,0,0,1-17.45,10.73,44.35,44.35,0,0,1-18.13,2l-26.24,26.24a44.35,44.35,0,0,1-2,18.13,43.59,43.59,0,0,1-10.73,17.45,44.12,44.12,0,0,1-62.39-62.4,43.48,43.48,0,0,1,17.44-10.73,44.57,44.57,0,0,1,18.14-2l26.23-26.23a44.55,44.55,0,0,1,2-18.14A43.48,43.48,0,0,1,869.9,472a44.12,44.12,0,1,1,62.4,62.39ZM863.77,571l30.65-30.65,1.56.21A37.75,37.75,0,1,0,863.7,508.3l.21,1.56-30.64,30.65-1.57-.21A37.75,37.75,0,1,0,864,572.58Z" transform="translate(-782.48 -459.08)"/><polygon points="57.1 101.44 44.1 114.44 31.1 101.44 26.59 105.94 39.59 118.94 26.59 131.94 31.1 136.45 44.1 123.45 57.1 136.45 61.61 131.94 48.61 118.94 61.61 105.94 57.1 101.44"/><path d="M885.81,498.26" transform="translate(-782.48 -459.08)"/><circle class="cls-1" cx="108.46" cy="34.03" r="6.4"/><circle class="cls-2" cx="108.29" cy="54.43" r="6.44"/><circle class="cls-3" cx="129.03" cy="54.6" r="6.37"/><circle class="cls-4" cx="128.56" cy="34.16" r="6.46"/><path class="cls-5" d="M831,533.8" transform="translate(-782.48 -459.08)"/><path class="cls-5" d="M831,533.8" transform="translate(-782.48 -459.08)"/><path d="M963.72,472.43h5.82V503.8h-5.82Z" transform="translate(-782.48 -459.08)"/><path d="M998.32,482.24c1.82,1.77,2.73,4.38,2.73,7.85V503.8h-5.6v-13a6.72,6.72,0,0,0-1.48-4.73,5.51,5.51,0,0,0-4.21-1.59,6.47,6.47,0,0,0-4.89,1.86,7.45,7.45,0,0,0-1.79,5.36v12.1h-5.6V479.87h5.33V483a8.74,8.74,0,0,1,3.5-2.51,12.49,12.49,0,0,1,4.75-.85A10,10,0,0,1,998.32,482.24Z" transform="translate(-782.48 -459.08)"/><path d="M1031.84,470.55V503.8h-5.38v-3.09a8.76,8.76,0,0,1-3.43,2.55,11.53,11.53,0,0,1-4.5.85,12.69,12.69,0,0,1-6.21-1.52,10.91,10.91,0,0,1-4.32-4.33,12.87,12.87,0,0,1-1.57-6.43,12.73,12.73,0,0,1,1.57-6.4,10.92,10.92,0,0,1,4.32-4.31,12.69,12.69,0,0,1,6.21-1.52,11.3,11.3,0,0,1,4.34.81,8.64,8.64,0,0,1,3.37,2.42V470.55Zm-9,27.85a6.56,6.56,0,0,0,2.55-2.62,8.67,8.67,0,0,0,0-7.89,6.5,6.5,0,0,0-2.55-2.62,7.62,7.62,0,0,0-7.26,0,6.59,6.59,0,0,0-2.56,2.62,8.75,8.75,0,0,0,0,7.89,6.65,6.65,0,0,0,2.56,2.62,7.62,7.62,0,0,0,7.26,0Z" transform="translate(-782.48 -459.08)"/><path d="M1039.46,475a3.28,3.28,0,0,1,0-4.79,3.54,3.54,0,0,1,2.55-1,3.68,3.68,0,0,1,2.55.92,3,3,0,0,1,1,2.31,3.42,3.42,0,0,1-1,2.49,3.49,3.49,0,0,1-2.58,1A3.58,3.58,0,0,1,1039.46,475Zm-.27,4.91h5.6V503.8h-5.6Z" transform="translate(-782.48 -459.08)"/><path d="M1074.55,493.63h-18.78a6.55,6.55,0,0,0,2.57,4.19,8.46,8.46,0,0,0,5.18,1.54,8.69,8.69,0,0,0,6.5-2.6l3,3.45a10,10,0,0,1-4.08,2.92,15,15,0,0,1-5.55,1,14.75,14.75,0,0,1-7-1.57,11.3,11.3,0,0,1-4.64-4.36,13.21,13.21,0,0,1,0-12.64,11.23,11.23,0,0,1,4.41-4.37,12.83,12.83,0,0,1,6.37-1.57,12.46,12.46,0,0,1,6.25,1.55,11,11,0,0,1,4.3,4.34,13.21,13.21,0,0,1,1.55,6.48C1074.64,492.36,1074.61,492.91,1074.55,493.63Zm-16.56-8a6.7,6.7,0,0,0-2.27,4.24h13.58a6.64,6.64,0,0,0-2.19-4.22,7.3,7.3,0,0,0-9.12,0Z" transform="translate(-782.48 -459.08)"/><path d="M985.14,541.53h5.51V554a17.62,17.62,0,0,1-5.64,3,21.93,21.93,0,0,1-6.64,1,17.91,17.91,0,0,1-8.65-2.09,15.53,15.53,0,0,1-6.05-5.76,16.79,16.79,0,0,1,0-16.58,15.47,15.47,0,0,1,6.08-5.76,18.08,18.08,0,0,1,8.71-2.08,19,19,0,0,1,7.17,1.3,14,14,0,0,1,5.43,3.81l-3.68,3.58a11.78,11.78,0,0,0-8.65-3.58,12.17,12.17,0,0,0-5.89,1.39,10,10,0,0,0-4,3.9,11.1,11.1,0,0,0-1.46,5.73,11,11,0,0,0,1.46,5.65,10.38,10.38,0,0,0,4,3.94,11.8,11.8,0,0,0,5.85,1.44,12.56,12.56,0,0,0,6.45-1.62Z" transform="translate(-782.48 -459.08)"/><path d="M1015,535.91c1.87,1.69,2.8,4.23,2.8,7.64v14h-5.29v-2.91a6.52,6.52,0,0,1-2.93,2.39,12.8,12.8,0,0,1-9.3-.09,7.28,7.28,0,0,1-3.12-2.55,6.49,6.49,0,0,1-1.09-3.7,6.34,6.34,0,0,1,2.39-5.18q2.4-1.93,7.55-1.94h6.19v-.36a4.92,4.92,0,0,0-1.5-3.86,6.53,6.53,0,0,0-4.46-1.34,12.82,12.82,0,0,0-4,.63,9.63,9.63,0,0,0-3.29,1.74l-2.2-4.07a13.66,13.66,0,0,1,4.53-2.2,20,20,0,0,1,5.6-.76C1010.45,533.38,1013.14,534.22,1015,535.91Zm-5.11,16.94a5.24,5.24,0,0,0,2.31-2.76v-2.77h-5.78q-4.84,0-4.84,3.18a2.86,2.86,0,0,0,1.21,2.42,5.5,5.5,0,0,0,3.36.89A7.26,7.26,0,0,0,1009.9,552.85Z" transform="translate(-782.48 -459.08)"/><path d="M1062.36,536q2.64,2.63,2.64,7.86v13.72h-5.6v-13a7,7,0,0,0-1.39-4.73,5,5,0,0,0-4-1.59,5.82,5.82,0,0,0-4.52,1.86,7.57,7.57,0,0,0-1.71,5.31v12.15h-5.6v-13a7,7,0,0,0-1.39-4.73,5,5,0,0,0-4-1.59,5.85,5.85,0,0,0-4.55,1.84,7.64,7.64,0,0,0-1.68,5.33v12.15H1025V533.65h5.33v3a8.84,8.84,0,0,1,3.36-2.46,11.41,11.41,0,0,1,4.49-.85,10.72,10.72,0,0,1,4.77,1,7.65,7.65,0,0,1,3.29,3,10,10,0,0,1,3.81-2.94,12.43,12.43,0,0,1,5.16-1A9.75,9.75,0,0,1,1062.36,536Z" transform="translate(-782.48 -459.08)"/><path d="M1094.8,547.41H1076a6.54,6.54,0,0,0,2.58,4.19,8.46,8.46,0,0,0,5.18,1.54,8.71,8.71,0,0,0,6.5-2.6l3,3.45a10.17,10.17,0,0,1-4.08,2.92,15,15,0,0,1-5.56,1,14.7,14.7,0,0,1-6.94-1.57,11.26,11.26,0,0,1-4.64-4.37,12.32,12.32,0,0,1-1.64-6.34,12.55,12.55,0,0,1,1.59-6.3,11.3,11.3,0,0,1,4.42-4.36,12.81,12.81,0,0,1,6.36-1.57,12.54,12.54,0,0,1,6.25,1.54,10.93,10.93,0,0,1,4.31,4.35,13.21,13.21,0,0,1,1.54,6.48C1094.89,546.14,1094.86,546.69,1094.8,547.41Zm-16.56-8a6.69,6.69,0,0,0-2.26,4.24h13.58a6.6,6.6,0,0,0-2.2-4.22,6.7,6.7,0,0,0-4.57-1.61A6.77,6.77,0,0,0,1078.24,539.45Z" transform="translate(-782.48 -459.08)"/><path d="M1102,557.13a14.22,14.22,0,0,1-4.43-1.93l2.15-4.25a13.8,13.8,0,0,0,3.87,1.72,16.26,16.26,0,0,0,4.46.65q5,0,5-2.64a1.76,1.76,0,0,0-1.28-1.75,21.87,21.87,0,0,0-4.1-.94,33.16,33.16,0,0,1-4.81-1,7.42,7.42,0,0,1-3.23-2,5.72,5.72,0,0,1-1.37-4.06,6.37,6.37,0,0,1,2.85-5.44,13,13,0,0,1,7.69-2,21.72,21.72,0,0,1,4.92.56,13.67,13.67,0,0,1,4,1.5l-2.15,4.26a13.26,13.26,0,0,0-6.86-1.8,7.63,7.63,0,0,0-3.74.74,2.23,2.23,0,0,0-1.28,2,2,2,0,0,0,1.37,1.91,22.07,22.07,0,0,0,4.23,1,32.94,32.94,0,0,1,4.71,1,7.46,7.46,0,0,1,3.16,2,5.51,5.51,0,0,1,1.32,4,6.25,6.25,0,0,1-2.91,5.38,13.81,13.81,0,0,1-7.94,2A21.38,21.38,0,0,1,1102,557.13Z" transform="translate(-782.48 -459.08)"/><path d="M966.43,610.77a14.36,14.36,0,0,1-5.35-2.73l2-4.53a15.78,15.78,0,0,0,4.73,2.49,17.25,17.25,0,0,0,5.62,1,9.75,9.75,0,0,0,5.23-1.12,3.4,3.4,0,0,0,1.72-3,2.86,2.86,0,0,0-1-2.22A6.75,6.75,0,0,0,977,599.3c-1-.33-2.33-.7-4-1.12a47.06,47.06,0,0,1-5.8-1.7,9.57,9.57,0,0,1-3.81-2.67,7.18,7.18,0,0,1-1.59-4.91,8.36,8.36,0,0,1,1.41-4.72,9.57,9.57,0,0,1,4.26-3.39,17.34,17.34,0,0,1,7-1.25,22.82,22.82,0,0,1,5.64.71,15.69,15.69,0,0,1,4.8,2.07L983,586.84a18.46,18.46,0,0,0-4.3-1.84,16.49,16.49,0,0,0-4.35-.62,9.14,9.14,0,0,0-5.13,1.16,3.6,3.6,0,0,0-1.68,3.09,2.81,2.81,0,0,0,1,2.2,7,7,0,0,0,2.44,1.35c1,.32,2.33.7,4,1.12A40.1,40.1,0,0,1,980.7,595a9.89,9.89,0,0,1,3.84,2.66,7,7,0,0,1,1.59,4.84,8.22,8.22,0,0,1-1.42,4.71,9.63,9.63,0,0,1-4.27,3.36,17.42,17.42,0,0,1-7,1.25A23.84,23.84,0,0,1,966.43,610.77Z" transform="translate(-782.48 -459.08)"/><path d="M1005.76,610.06a6.78,6.78,0,0,1-2.4,1.21,10.78,10.78,0,0,1-3,.4,8.5,8.5,0,0,1-6.1-2.06,8,8,0,0,1-2.15-6V592.09h-3.94V587.6h3.94v-5.46h5.6v5.46h6.41v4.49h-6.41v11.38a3.81,3.81,0,0,0,.86,2.67,3.17,3.17,0,0,0,2.46.91,4.91,4.91,0,0,0,3.14-1Z" transform="translate(-782.48 -459.08)"/><path d="M1033.54,587.42v23.94h-5.33v-3.05a9.12,9.12,0,0,1-3.36,2.49,10.9,10.9,0,0,1-4.35.87A10.39,10.39,0,0,1,1013,609q-2.76-2.65-2.76-7.91V587.42h5.6v12.91a7,7,0,0,0,1.46,4.82,5.34,5.34,0,0,0,4.15,1.59,6.27,6.27,0,0,0,4.77-1.86,7.46,7.46,0,0,0,1.77-5.35V587.42Z" transform="translate(-782.48 -459.08)"/><path d="M1064.33,578.1v33.26H1059v-3.1a8.62,8.62,0,0,1-3.43,2.56,11.53,11.53,0,0,1-4.5.85,12.69,12.69,0,0,1-6.21-1.52,10.91,10.91,0,0,1-4.32-4.33,13.91,13.91,0,0,1,0-12.84,11,11,0,0,1,4.32-4.3,12.69,12.69,0,0,1,6.21-1.52,11.38,11.38,0,0,1,4.35.8,8.89,8.89,0,0,1,3.36,2.42V578.1Zm-9,27.86a6.68,6.68,0,0,0,2.56-2.63,8.73,8.73,0,0,0,0-7.88,6.59,6.59,0,0,0-2.56-2.62,7.62,7.62,0,0,0-7.26,0,6.57,6.57,0,0,0-2.55,2.62,8.73,8.73,0,0,0,0,7.88,6.66,6.66,0,0,0,2.55,2.63,7.62,7.62,0,0,0,7.26,0Z" transform="translate(-782.48 -459.08)"/><path d="M1072,582.52a3.31,3.31,0,0,1,0-4.8,3.59,3.59,0,0,1,2.55-1,3.72,3.72,0,0,1,2.56.92,3,3,0,0,1,1,2.31,3.38,3.38,0,0,1-1,2.48,3.46,3.46,0,0,1-2.58,1A3.59,3.59,0,0,1,1072,582.52Zm-.27,4.9h5.6v23.94h-5.6Z" transform="translate(-782.48 -459.08)"/><path d="M1088.84,610.1a11.4,11.4,0,0,1-4.55-4.37,13.11,13.11,0,0,1,0-12.66,11.55,11.55,0,0,1,4.55-4.35,14.59,14.59,0,0,1,13.13,0,11.48,11.48,0,0,1,4.55,4.35,13,13,0,0,1,0,12.66,11.33,11.33,0,0,1-4.55,4.37,14.51,14.51,0,0,1-13.13,0Zm11.65-5.29a8.28,8.28,0,0,0,0-10.84,7.33,7.33,0,0,0-10.19,0,8.34,8.34,0,0,0,0,10.84,7.31,7.31,0,0,0,10.19,0Z" transform="translate(-782.48 -459.08)"/></svg>