<svg id="Слой_1" data-name="Слой 1" xmlns="http://www.w3.org/2000/svg" viewBox="0 0 329 159.31"><defs><style>.cls-1{fill:#fff;}.cls-2{fill:#fed330;}.cls-3{fill:#0984e3;}.cls-4{fill:#20bf6b;}.cls-5{fill:#eb2f06;}.cls-6{fill:none;}</style></defs><path class="cls-1" d="M933.11,534.63A42.65,42.65,0,0,1,916,545.14a43.58,43.58,0,0,1-17.76,1.93l-25.68,25.68a43.58,43.58,0,0,1-1.93,17.76,42.65,42.65,0,0,1-10.51,17.08,43.2,43.2,0,0,1-61.09-61.09A42.76,42.76,0,0,1,816.14,536a43.58,43.58,0,0,1,17.76-1.93l25.68-25.68a43.58,43.58,0,0,1,1.93-17.76A42.65,42.65,0,0,1,872,473.54a43.2,43.2,0,1,1,61.09,61.09ZM866,570.5l30-30,1.53.21A37,37,0,1,0,866,509.1l.21,1.53-30,30-1.53-.21A37,37,0,1,0,866.22,572Z" transform="translate(-786.43 -460.91)"/><polygon class="cls-1" points="55.91 99.31 43.18 112.04 30.45 99.31 26.04 103.73 38.76 116.46 26.04 129.18 30.45 133.6 43.18 120.87 55.91 133.6 60.32 129.18 47.59 116.46 60.32 103.73 55.91 99.31"/><path d="M887.59,499.26" transform="translate(-786.43 -460.91)"/><circle class="cls-2" cx="106.2" cy="33.32" r="6.27"/><circle class="cls-3" cx="106.03" cy="53.29" r="6.3"/><circle class="cls-4" cx="126.33" cy="53.46" r="6.24"/><circle class="cls-5" cx="125.87" cy="33.45" r="6.33"/><path class="cls-6" d="M833.9,534.06" transform="translate(-786.43 -460.91)"/><path class="cls-6" d="M833.9,534.06" transform="translate(-786.43 -460.91)"/><path class="cls-1" d="M963.87,474h5.71v30.71h-5.71Z" transform="translate(-786.43 -460.91)"/><path class="cls-1" d="M997.75,483.59q2.67,2.58,2.67,7.68v13.42h-5.48V492a6.56,6.56,0,0,0-1.45-4.63,5.34,5.34,0,0,0-4.12-1.56,6.36,6.36,0,0,0-4.79,1.82,7.27,7.27,0,0,0-1.75,5.25v11.84h-5.49V481.26h5.22v3a8.66,8.66,0,0,1,3.43-2.46,12.39,12.39,0,0,1,4.65-.83A9.8,9.8,0,0,1,997.75,483.59Z" transform="translate(-786.43 -460.91)"/><path class="cls-1" d="M1030.57,472.14v32.55h-5.27v-3a8.51,8.51,0,0,1-3.36,2.5,11.42,11.42,0,0,1-4.4.83,12.39,12.39,0,0,1-6.08-1.49,10.81,10.81,0,0,1-4.24-4.24,13.67,13.67,0,0,1,0-12.57,10.79,10.79,0,0,1,4.24-4.21,12.39,12.39,0,0,1,6.08-1.49,11.09,11.09,0,0,1,4.25.79,8.42,8.42,0,0,1,3.29,2.37v-12Zm-8.82,27.27a6.58,6.58,0,0,0,2.5-2.57,8.56,8.56,0,0,0,0-7.72,6.51,6.51,0,0,0-2.5-2.57,7.47,7.47,0,0,0-7.11,0,6.45,6.45,0,0,0-2.5,2.57,8.56,8.56,0,0,0,0,7.72,6.51,6.51,0,0,0,2.5,2.57,7.47,7.47,0,0,0,7.11,0Z" transform="translate(-786.43 -460.91)"/><path class="cls-1" d="M1038,476.46a3.24,3.24,0,0,1,0-4.7,3.5,3.5,0,0,1,2.5-.94,3.62,3.62,0,0,1,2.5.9,2.91,2.91,0,0,1,1,2.26,3.29,3.29,0,0,1-1,2.43,3.41,3.41,0,0,1-2.52,1A3.5,3.5,0,0,1,1038,476.46Zm-.27,4.8h5.49v23.43h-5.49Z" transform="translate(-786.43 -460.91)"/><path class="cls-1" d="M1072.38,494.73H1054a6.37,6.37,0,0,0,2.52,4.11,8.33,8.33,0,0,0,5.07,1.51,8.54,8.54,0,0,0,6.36-2.55l2.94,3.38a9.81,9.81,0,0,1-4,2.85,15.76,15.76,0,0,1-12.24-.57,11.11,11.11,0,0,1-4.55-4.27,12.92,12.92,0,0,1,0-12.38,11.11,11.11,0,0,1,4.32-4.28,12.67,12.67,0,0,1,6.23-1.53,12.23,12.23,0,0,1,6.12,1.51,10.74,10.74,0,0,1,4.22,4.26,12.9,12.9,0,0,1,1.51,6.34Q1072.47,493.68,1072.38,494.73Zm-16.21-7.79a6.61,6.61,0,0,0-2.22,4.15h13.3a6.41,6.41,0,0,0-6.63-5.7A6.65,6.65,0,0,0,1056.17,486.94Z" transform="translate(-786.43 -460.91)"/><path class="cls-1" d="M984.85,541.64h5.39v12.24a17.19,17.19,0,0,1-5.52,2.9,21.37,21.37,0,0,1-6.5,1,17.54,17.54,0,0,1-8.47-2,15.16,15.16,0,0,1-5.92-5.64,16.41,16.41,0,0,1,0-16.24,15.1,15.1,0,0,1,5.95-5.64,17.69,17.69,0,0,1,8.53-2,18.63,18.63,0,0,1,7,1.28,13.62,13.62,0,0,1,5.31,3.73l-3.6,3.51a11.54,11.54,0,0,0-8.47-3.51,11.94,11.94,0,0,0-5.77,1.36,9.92,9.92,0,0,0-3.95,3.81,11,11,0,0,0-1.42,5.62,10.82,10.82,0,0,0,1.42,5.53,10.25,10.25,0,0,0,3.95,3.86,11.53,11.53,0,0,0,5.73,1.4,12.4,12.4,0,0,0,6.32-1.57Z" transform="translate(-786.43 -460.91)"/><path class="cls-1" d="M1014.09,536.13c1.83,1.65,2.74,4.15,2.74,7.48v13.74h-5.17V554.5a6.4,6.4,0,0,1-2.88,2.34,11.23,11.23,0,0,1-4.5.82,11,11,0,0,1-4.6-.91,7,7,0,0,1-3-2.5,6.3,6.3,0,0,1-1.08-3.62,6.18,6.18,0,0,1,2.35-5.06c1.56-1.28,4-1.91,7.39-1.91h6.06v-.35a4.82,4.82,0,0,0-1.47-3.78,6.36,6.36,0,0,0-4.37-1.31,12.58,12.58,0,0,0-3.88.61,9.49,9.49,0,0,0-3.22,1.71l-2.16-4a13.31,13.31,0,0,1,4.44-2.15,19.56,19.56,0,0,1,5.48-.75Q1011.35,533.65,1014.09,536.13Zm-5,16.59a5.14,5.14,0,0,0,2.26-2.7V547.3h-5.66q-4.74,0-4.74,3.12a2.77,2.77,0,0,0,1.18,2.36,5.42,5.42,0,0,0,3.3.88A7.07,7.07,0,0,0,1009.09,552.72Z" transform="translate(-786.43 -460.91)"/><path class="cls-1" d="M1060.45,536.22c1.72,1.71,2.59,4.28,2.59,7.7v13.43h-5.49V544.62a6.86,6.86,0,0,0-1.36-4.63,4.92,4.92,0,0,0-3.9-1.55,5.68,5.68,0,0,0-4.43,1.82,7.37,7.37,0,0,0-1.67,5.2v11.89h-5.49V544.62a6.86,6.86,0,0,0-1.36-4.63,4.92,4.92,0,0,0-3.9-1.55,5.79,5.79,0,0,0-4.46,1.79,7.52,7.52,0,0,0-1.64,5.23v11.89h-5.49V533.92h5.23v3a8.41,8.41,0,0,1,3.29-2.41,11,11,0,0,1,4.38-.84,10.59,10.59,0,0,1,4.68,1,7.57,7.57,0,0,1,3.22,2.92,9.84,9.84,0,0,1,3.73-2.88,12.22,12.22,0,0,1,5-1A9.55,9.55,0,0,1,1060.45,536.22Z" transform="translate(-786.43 -460.91)"/><path class="cls-1" d="M1092.22,547.39h-18.39a6.37,6.37,0,0,0,2.52,4.1,8.27,8.27,0,0,0,5.07,1.51,8.5,8.5,0,0,0,6.36-2.54l2.94,3.38a9.81,9.81,0,0,1-4,2.85,15.76,15.76,0,0,1-12.24-.57,11,11,0,0,1-4.54-4.28,12.07,12.07,0,0,1-1.6-6.21,12.33,12.33,0,0,1,1.55-6.16,11,11,0,0,1,4.33-4.28,12.65,12.65,0,0,1,6.23-1.54,12.29,12.29,0,0,1,6.12,1.52,10.76,10.76,0,0,1,4.21,4.25,12.92,12.92,0,0,1,1.51,6.34C1092.3,546.14,1092.27,546.69,1092.22,547.39ZM1076,539.6a6.55,6.55,0,0,0-2.21,4.15h13.29a6.44,6.44,0,0,0-2.15-4.13,6.55,6.55,0,0,0-4.47-1.58A6.63,6.63,0,0,0,1076,539.6Z" transform="translate(-786.43 -460.91)"/><path class="cls-1" d="M1099.24,556.91a14,14,0,0,1-4.35-1.89l2.11-4.17a13.22,13.22,0,0,0,3.79,1.69,15.62,15.62,0,0,0,4.37.64c3.28,0,4.91-.86,4.91-2.59a1.72,1.72,0,0,0-1.25-1.71,21.47,21.47,0,0,0-4-.92,32.51,32.51,0,0,1-4.72-1,7.26,7.26,0,0,1-3.16-2,5.58,5.58,0,0,1-1.34-4,6.24,6.24,0,0,1,2.79-5.33,12.71,12.71,0,0,1,7.53-2,22.07,22.07,0,0,1,4.82.55,13.73,13.73,0,0,1,4,1.47l-2.1,4.17a13,13,0,0,0-6.72-1.76,7.43,7.43,0,0,0-3.66.73,2.15,2.15,0,0,0-1.25,1.91,1.89,1.89,0,0,0,1.34,1.86,20.75,20.75,0,0,0,4.14,1,33.21,33.21,0,0,1,4.61,1,7.24,7.24,0,0,1,3.09,1.93,5.38,5.38,0,0,1,1.3,3.87,6.11,6.11,0,0,1-2.85,5.26,13.46,13.46,0,0,1-7.77,2A20.84,20.84,0,0,1,1099.24,556.91Z" transform="translate(-786.43 -460.91)"/><path class="cls-1" d="M966.53,609.43a14.08,14.08,0,0,1-5.24-2.68l2-4.43a15.47,15.47,0,0,0,4.63,2.44,16.79,16.79,0,0,0,5.51.94,9.44,9.44,0,0,0,5.11-1.1,3.33,3.33,0,0,0,1.69-2.89,2.8,2.8,0,0,0-1-2.17,6.57,6.57,0,0,0-2.39-1.34c-1-.32-2.28-.69-4-1.1a44.36,44.36,0,0,1-5.68-1.67,9.24,9.24,0,0,1-3.73-2.61,7,7,0,0,1-1.56-4.8,8.13,8.13,0,0,1,1.39-4.63,9.36,9.36,0,0,1,4.16-3.31,16.88,16.88,0,0,1,6.83-1.23,22,22,0,0,1,5.53.7,15.32,15.32,0,0,1,4.69,2l-1.8,4.43a17.69,17.69,0,0,0-4.21-1.8,15.71,15.71,0,0,0-4.26-.61,8.89,8.89,0,0,0-5,1.14,3.51,3.51,0,0,0-1.65,3,2.73,2.73,0,0,0,.95,2.15,6.69,6.69,0,0,0,2.39,1.32c1,.32,2.28.69,3.95,1.1A40.6,40.6,0,0,1,980.5,594a9.49,9.49,0,0,1,3.75,2.61,6.88,6.88,0,0,1,1.56,4.74,8.09,8.09,0,0,1-1.38,4.61,9.37,9.37,0,0,1-4.19,3.29,17,17,0,0,1-6.84,1.23A23.55,23.55,0,0,1,966.53,609.43Z" transform="translate(-786.43 -460.91)"/><path class="cls-1" d="M1005,608.73a6.42,6.42,0,0,1-2.35,1.18,10.28,10.28,0,0,1-2.91.4,8.25,8.25,0,0,1-6-2,7.76,7.76,0,0,1-2.11-5.88V591.13h-3.86v-4.38h3.86v-5.36h5.49v5.36h6.27v4.38h-6.27v11.15a3.73,3.73,0,0,0,.83,2.61,3.13,3.13,0,0,0,2.41.9,4.81,4.81,0,0,0,3.08-1Z" transform="translate(-786.43 -460.91)"/><path class="cls-1" d="M1032.24,586.57V610H1027v-3a8.65,8.65,0,0,1-3.29,2.43,10.55,10.55,0,0,1-4.25.86,10.2,10.2,0,0,1-7.4-2.61c-1.8-1.74-2.69-4.32-2.69-7.75V586.57h5.48v12.64a6.72,6.72,0,0,0,1.43,4.71,5.21,5.21,0,0,0,4.05,1.56,6.15,6.15,0,0,0,4.68-1.82,7.33,7.33,0,0,0,1.73-5.24V586.57Z" transform="translate(-786.43 -460.91)"/><path class="cls-1" d="M1062.38,577.44V610h-5.26v-3a8.48,8.48,0,0,1-3.36,2.5,11.25,11.25,0,0,1-4.41.84,12.42,12.42,0,0,1-6.08-1.49,10.72,10.72,0,0,1-4.23-4.24,13.6,13.6,0,0,1,0-12.57,10.71,10.71,0,0,1,4.23-4.21,12.31,12.31,0,0,1,6.08-1.49,11,11,0,0,1,4.25.79,8.46,8.46,0,0,1,3.3,2.37v-12Zm-8.82,27.27a6.48,6.48,0,0,0,2.5-2.56,8.58,8.58,0,0,0,0-7.73,6.48,6.48,0,0,0-2.5-2.56,7.47,7.47,0,0,0-7.11,0,6.55,6.55,0,0,0-2.5,2.56,8.58,8.58,0,0,0,0,7.73,6.55,6.55,0,0,0,2.5,2.56,7.47,7.47,0,0,0,7.11,0Z" transform="translate(-786.43 -460.91)"/><path class="cls-1" d="M1069.84,581.77a3.24,3.24,0,0,1,0-4.7,3.5,3.5,0,0,1,2.5-.94,3.62,3.62,0,0,1,2.5.9,2.91,2.91,0,0,1,1,2.26,3.3,3.3,0,0,1-1,2.43,3.4,3.4,0,0,1-2.52,1A3.54,3.54,0,0,1,1069.84,581.77Zm-.26,4.8h5.48V610h-5.48Z" transform="translate(-786.43 -460.91)"/><path class="cls-1" d="M1086.38,608.77a11.12,11.12,0,0,1-4.45-4.28,12.79,12.79,0,0,1,0-12.39,11.27,11.27,0,0,1,4.45-4.26,14.28,14.28,0,0,1,12.86,0,11.33,11.33,0,0,1,4.45,4.26,12.79,12.79,0,0,1,0,12.39,11.18,11.18,0,0,1-4.45,4.28,14.19,14.19,0,0,1-12.86,0Zm11.41-5.18a8.13,8.13,0,0,0,0-10.61,6.68,6.68,0,0,0-5-2,6.61,6.61,0,0,0-5,2,8.16,8.16,0,0,0,0,10.61,6.61,6.61,0,0,0,5,2A6.68,6.68,0,0,0,1097.79,603.59Z" transform="translate(-786.43 -460.91)"/></svg>