<svg id="Слой_1" data-name="Слой 1" xmlns="http://www.w3.org/2000/svg" viewBox="0 0 491.66 143.96"><defs><style>.cls-1{fill:#fed330;}.cls-2{fill:#0984e3;}.cls-3{fill:#20bf6b;}.cls-4{fill:#eb2f06;}.cls-5{fill:none;}</style></defs><path d="M943.29,609.26a70.23,70.23,0,0,1-32.06-7.64,71.62,71.62,0,0,1-22.87-18.39H828.68a71.62,71.62,0,0,1-22.87,18.39,70.2,70.2,0,0,1-32.06,7.64,71,71,0,0,1,0-142,70.2,70.2,0,0,1,32.06,7.64,71.62,71.62,0,0,1,22.87,18.39h59.68a71.62,71.62,0,0,1,22.87-18.39,70.23,70.23,0,0,1,32.06-7.64,71,71,0,0,1,0,142ZM823.66,573h69.73l1.54,2a60.73,60.73,0,1,0,0-73.45l-1.54,2H823.66l-1.54-2a60.73,60.73,0,1,0,0,73.45Z" transform="translate(-702.77 -465.3)"/><polygon points="105.32 68.22 75.74 68.22 75.74 38.64 65.48 38.64 65.48 68.22 35.9 68.22 35.9 78.48 65.48 78.48 65.48 108.06 75.74 108.06 75.74 78.48 105.32 78.48 105.32 68.22"/><path d="M936.43,518.5" transform="translate(-702.77 -465.3)"/><circle class="cls-1" cx="240.43" cy="49.97" r="10.3"/><circle class="cls-2" cx="217.03" cy="72.98" r="10.36"/><circle class="cls-3" cx="240.43" cy="96.77" r="10.26"/><circle class="cls-4" cx="263.14" cy="72.98" r="10.4"/><path class="cls-5" d="M825.08,492.68" transform="translate(-702.77 -465.3)"/><path class="cls-5" d="M825.08,492.68" transform="translate(-702.77 -465.3)"/><path d="M1039.64,468.52h5.82V499.9h-5.82Z" transform="translate(-702.77 -465.3)"/><path d="M1074.24,478.34c1.82,1.76,2.73,4.38,2.73,7.84V499.9h-5.6v-13a6.75,6.75,0,0,0-1.48-4.73,5.48,5.48,0,0,0-4.22-1.59,6.47,6.47,0,0,0-4.88,1.86,7.38,7.38,0,0,0-1.79,5.35V499.9h-5.6V476h5.33v3.1a8.61,8.61,0,0,1,3.49-2.51,12.56,12.56,0,0,1,4.75-.85A10,10,0,0,1,1074.24,478.34Z" transform="translate(-702.77 -465.3)"/><path d="M1107.76,466.64V499.9h-5.38v-3.1a8.69,8.69,0,0,1-3.43,2.56,11.71,11.71,0,0,1-4.5.85,12.67,12.67,0,0,1-6.21-1.52,11,11,0,0,1-4.33-4.33,13,13,0,0,1-1.56-6.43,12.87,12.87,0,0,1,1.56-6.41,11.05,11.05,0,0,1,4.33-4.3,12.56,12.56,0,0,1,6.21-1.52,11.29,11.29,0,0,1,4.34.8,8.73,8.73,0,0,1,3.36,2.42V466.64Zm-9,27.86a6.72,6.72,0,0,0,2.55-2.63,8.73,8.73,0,0,0,0-7.88,6.72,6.72,0,0,0-2.55-2.63,7.7,7.7,0,0,0-7.26,0,6.68,6.68,0,0,0-2.56,2.63,8.73,8.73,0,0,0,0,7.88,6.68,6.68,0,0,0,2.56,2.63,7.7,7.7,0,0,0,7.26,0Z" transform="translate(-702.77 -465.3)"/><path d="M1115.38,471.06a3.29,3.29,0,0,1,0-4.8,3.58,3.58,0,0,1,2.55-1,3.65,3.65,0,0,1,2.55.92,2.94,2.94,0,0,1,1,2.3,3.38,3.38,0,0,1-1,2.49,3.53,3.53,0,0,1-2.58,1A3.58,3.58,0,0,1,1115.38,471.06Zm-.27,4.9h5.6V499.9h-5.6Z" transform="translate(-702.77 -465.3)"/><path d="M1150.46,489.72h-18.77a6.52,6.52,0,0,0,2.57,4.19,8.47,8.47,0,0,0,5.18,1.55,8.73,8.73,0,0,0,6.5-2.6l3,3.45a9.92,9.92,0,0,1-4.08,2.91,16.12,16.12,0,0,1-12.5-.58,11.26,11.26,0,0,1-4.64-4.37,12.35,12.35,0,0,1-1.64-6.34,12.56,12.56,0,0,1,1.6-6.3,11.36,11.36,0,0,1,4.41-4.37,12.92,12.92,0,0,1,6.36-1.56,12.6,12.6,0,0,1,6.26,1.54,11,11,0,0,1,4.3,4.35,13.2,13.2,0,0,1,1.54,6.47C1150.55,488.45,1150.52,489,1150.46,489.72Zm-16.55-8a6.7,6.7,0,0,0-2.27,4.23h13.58a6.53,6.53,0,0,0-6.77-5.82A6.72,6.72,0,0,0,1133.91,481.77Z" transform="translate(-702.77 -465.3)"/><path d="M1061.06,537.63h5.51v12.5a17.43,17.43,0,0,1-5.64,3,21.67,21.67,0,0,1-6.64,1,17.9,17.9,0,0,1-8.65-2.08,15.53,15.53,0,0,1-6.05-5.76,16.79,16.79,0,0,1,0-16.58,15.47,15.47,0,0,1,6.08-5.76,18.09,18.09,0,0,1,8.71-2.09,19.15,19.15,0,0,1,7.17,1.3A14.22,14.22,0,0,1,1067,527l-3.68,3.59a11.79,11.79,0,0,0-8.65-3.59,12.29,12.29,0,0,0-5.89,1.39,10.24,10.24,0,0,0-4,3.9,11.26,11.26,0,0,0-1.45,5.74,11,11,0,0,0,1.45,5.64,10.5,10.5,0,0,0,4,4,11.76,11.76,0,0,0,5.85,1.43,12.55,12.55,0,0,0,6.45-1.61Z" transform="translate(-702.77 -465.3)"/><path d="M1090.93,532c1.86,1.68,2.8,4.23,2.8,7.64v14h-5.29v-2.91a6.48,6.48,0,0,1-2.93,2.4,11.53,11.53,0,0,1-4.6.83,11.26,11.26,0,0,1-4.7-.92,7.17,7.17,0,0,1-3.12-2.56,6.48,6.48,0,0,1-1.1-3.69,6.34,6.34,0,0,1,2.4-5.18q2.4-1.95,7.55-1.95h6.19v-.36a4.91,4.91,0,0,0-1.5-3.85,6.5,6.5,0,0,0-4.46-1.35,12.82,12.82,0,0,0-4,.63,9.64,9.64,0,0,0-3.29,1.75l-2.2-4.08a13.55,13.55,0,0,1,4.53-2.19,20,20,0,0,1,5.6-.77Q1088.12,529.47,1090.93,532ZM1085.82,549a5.31,5.31,0,0,0,2.31-2.76v-2.78h-5.78q-4.85,0-4.84,3.18a2.83,2.83,0,0,0,1.21,2.42,5.5,5.5,0,0,0,3.36.9A7.26,7.26,0,0,0,1085.82,549Z" transform="translate(-702.77 -465.3)"/><path d="M1138.28,532.1q2.64,2.61,2.64,7.86v13.71h-5.6v-13a7,7,0,0,0-1.39-4.73,5,5,0,0,0-4-1.59,5.86,5.86,0,0,0-4.53,1.86,7.61,7.61,0,0,0-1.7,5.31v12.14h-5.6v-13a7,7,0,0,0-1.39-4.73,5,5,0,0,0-4-1.59,5.85,5.85,0,0,0-4.55,1.84,7.62,7.62,0,0,0-1.68,5.33v12.14h-5.6V529.74h5.33v3a8.63,8.63,0,0,1,3.36-2.46,11.41,11.41,0,0,1,4.49-.86,10.86,10.86,0,0,1,4.77,1,7.71,7.71,0,0,1,3.29,3,10,10,0,0,1,3.81-2.93,12.4,12.4,0,0,1,5.16-1.06A9.75,9.75,0,0,1,1138.28,532.1Z" transform="translate(-702.77 -465.3)"/><path d="M1170.72,543.5h-18.78a6.52,6.52,0,0,0,2.58,4.19,8.47,8.47,0,0,0,5.18,1.55,8.75,8.75,0,0,0,6.5-2.6l3,3.45a10.24,10.24,0,0,1-4.08,2.91,16.12,16.12,0,0,1-12.5-.58,11.26,11.26,0,0,1-4.64-4.37,12.35,12.35,0,0,1-1.64-6.34,12.55,12.55,0,0,1,1.59-6.3,11.26,11.26,0,0,1,4.42-4.37,12.92,12.92,0,0,1,6.36-1.57A12.57,12.57,0,0,1,1165,531a10.91,10.91,0,0,1,4.3,4.35,13,13,0,0,1,1.55,6.47C1170.81,542.23,1170.78,542.78,1170.72,543.5Zm-16.56-8a6.69,6.69,0,0,0-2.26,4.23h13.58a6.58,6.58,0,0,0-2.2-4.21,6.65,6.65,0,0,0-4.57-1.61A6.77,6.77,0,0,0,1154.16,535.55Z" transform="translate(-702.77 -465.3)"/><path d="M1177.89,553.23a14.22,14.22,0,0,1-4.43-1.93l2.15-4.26a13.81,13.81,0,0,0,3.87,1.73,16.26,16.26,0,0,0,4.46.65q5,0,5-2.65a1.77,1.77,0,0,0-1.28-1.75,22.71,22.71,0,0,0-4.1-.94,31.6,31.6,0,0,1-4.81-1,7.33,7.33,0,0,1-3.23-2,5.69,5.69,0,0,1-1.37-4,6.38,6.38,0,0,1,2.85-5.45,13,13,0,0,1,7.68-2,22.32,22.32,0,0,1,4.93.56,14,14,0,0,1,4,1.51l-2.15,4.25a13.35,13.35,0,0,0-6.86-1.79,7.63,7.63,0,0,0-3.74.74,2.21,2.21,0,0,0-1.28,2,1.94,1.94,0,0,0,1.37,1.9,21.21,21.21,0,0,0,4.23,1.06,32.94,32.94,0,0,1,4.71,1,7.42,7.42,0,0,1,3.16,2,5.5,5.5,0,0,1,1.32,3.94,6.24,6.24,0,0,1-2.91,5.38,13.73,13.73,0,0,1-7.94,2A21.74,21.74,0,0,1,1177.89,553.23Z" transform="translate(-702.77 -465.3)"/><path d="M1042.35,606.87a14.79,14.79,0,0,1-5.36-2.73l2-4.53a15.66,15.66,0,0,0,4.73,2.49,17.25,17.25,0,0,0,5.62,1,9.69,9.69,0,0,0,5.22-1.12,3.4,3.4,0,0,0,1.73-3,2.89,2.89,0,0,0-1-2.22,6.88,6.88,0,0,0-2.45-1.36c-1-.33-2.33-.7-4-1.12a46.86,46.86,0,0,1-5.8-1.71,9.45,9.45,0,0,1-3.81-2.66,7.2,7.2,0,0,1-1.59-4.91,8.39,8.39,0,0,1,1.41-4.73,9.51,9.51,0,0,1,4.25-3.38,17.2,17.2,0,0,1,7-1.26,22.39,22.39,0,0,1,5.65.72,15.92,15.92,0,0,1,4.8,2.06l-1.84,4.53a18.22,18.22,0,0,0-4.3-1.84,16.11,16.11,0,0,0-4.35-.63,9,9,0,0,0-5.13,1.17,3.6,3.6,0,0,0-1.68,3.09,2.81,2.81,0,0,0,1,2.2,7,7,0,0,0,2.44,1.34c1,.33,2.33.7,4,1.12a42.88,42.88,0,0,1,5.73,1.68,9.81,9.81,0,0,1,3.84,2.67,7.07,7.07,0,0,1,1.59,4.84,8.18,8.18,0,0,1-1.42,4.7,9.55,9.55,0,0,1-4.28,3.37,17.51,17.51,0,0,1-7,1.25A23.79,23.79,0,0,1,1042.35,606.87Z" transform="translate(-702.77 -465.3)"/><path d="M1081.67,606.15a6.49,6.49,0,0,1-2.39,1.21,10.78,10.78,0,0,1-3,.41,8.46,8.46,0,0,1-6.1-2.07,7.93,7.93,0,0,1-2.15-6V588.18h-3.94V583.7h3.94v-5.47h5.6v5.47h6.41v4.48h-6.41v11.38a3.82,3.82,0,0,0,.85,2.67,3.21,3.21,0,0,0,2.47.92,4.93,4.93,0,0,0,3.14-1Z" transform="translate(-702.77 -465.3)"/><path d="M1109.46,583.52v23.93h-5.33V604.4a8.91,8.91,0,0,1-3.36,2.49,10.91,10.91,0,0,1-4.35.88,10.39,10.39,0,0,1-7.55-2.67q-2.76-2.67-2.76-7.91V583.52h5.6v12.91a7,7,0,0,0,1.46,4.82,5.34,5.34,0,0,0,4.15,1.59,6.27,6.27,0,0,0,4.77-1.86,7.48,7.48,0,0,0,1.77-5.36v-12.1Z" transform="translate(-702.77 -465.3)"/><path d="M1140.25,574.2v33.25h-5.38v-3.09a8.57,8.57,0,0,1-3.43,2.55,11.53,11.53,0,0,1-4.5.86,12.59,12.59,0,0,1-6.21-1.53,10.82,10.82,0,0,1-4.32-4.32,12.9,12.9,0,0,1-1.57-6.43,12.77,12.77,0,0,1,1.57-6.41,10.9,10.9,0,0,1,4.32-4.3,12.59,12.59,0,0,1,6.21-1.53,11.38,11.38,0,0,1,4.35.81,8.78,8.78,0,0,1,3.36,2.42V574.2Zm-9,27.85a6.5,6.5,0,0,0,2.55-2.62,8.67,8.67,0,0,0,0-7.89,6.56,6.56,0,0,0-2.55-2.62,7.62,7.62,0,0,0-7.26,0,6.56,6.56,0,0,0-2.55,2.62,8.67,8.67,0,0,0,0,7.89,6.5,6.5,0,0,0,2.55,2.62,7.62,7.62,0,0,0,7.26,0Z" transform="translate(-702.77 -465.3)"/><path d="M1147.87,578.61a3.3,3.3,0,0,1,0-4.79,3.6,3.6,0,0,1,2.55-1,3.72,3.72,0,0,1,2.56.92,3,3,0,0,1,1,2.31,3.39,3.39,0,0,1-1,2.49,3.5,3.5,0,0,1-2.58,1A3.56,3.56,0,0,1,1147.87,578.61Zm-.27,4.91h5.6v23.93h-5.6Z" transform="translate(-702.77 -465.3)"/><path d="M1164.76,606.2a11.46,11.46,0,0,1-4.55-4.37,12.34,12.34,0,0,1-1.63-6.34,12.22,12.22,0,0,1,1.63-6.32,11.55,11.55,0,0,1,4.55-4.35,14.51,14.51,0,0,1,13.13,0,11.55,11.55,0,0,1,4.55,4.35,12.23,12.23,0,0,1,1.64,6.32,12.35,12.35,0,0,1-1.64,6.34,11.46,11.46,0,0,1-4.55,4.37,14.51,14.51,0,0,1-13.13,0Zm11.65-5.29a8.29,8.29,0,0,0,0-10.85,7.33,7.33,0,0,0-10.19,0,8.36,8.36,0,0,0,0,10.85,7.33,7.33,0,0,0,10.19,0Z" transform="translate(-702.77 -465.3)"/></svg>