<svg id="Слой_1" data-name="Слой 1" xmlns="http://www.w3.org/2000/svg" viewBox="0 0 481.38 140.95"><defs><style>.cls-1{fill:#fff;}.cls-2{fill:#fed330;}.cls-3{fill:#0984e3;}.cls-4{fill:#20bf6b;}.cls-5{fill:#eb2f06;}.cls-6{fill:none;}</style></defs><path class="cls-1" d="M943.63,607.82a68.76,68.76,0,0,1-31.39-7.48,70.12,70.12,0,0,1-22.39-18H831.41a70.23,70.23,0,0,1-22.39,18,68.82,68.82,0,0,1-31.39,7.48,69.5,69.5,0,1,1,0-139A68.82,68.82,0,0,1,809,476.3a70.26,70.26,0,0,1,22.39,18h58.44a70.15,70.15,0,0,1,22.39-18,68.76,68.76,0,0,1,31.39-7.48,69.5,69.5,0,0,1,0,139ZM826.49,572.3h68.28l1.5,2a59.46,59.46,0,1,0,0-71.92l-1.51,2H826.49l-1.5-2a59.46,59.46,0,1,0,0,71.92Z" transform="translate(-708.13 -466.87)"/><polygon class="cls-1" points="103.11 66.79 74.16 66.79 74.16 37.83 64.11 37.83 64.11 66.79 35.15 66.79 35.15 76.84 64.11 76.84 64.11 105.8 74.16 105.8 74.16 76.84 103.11 76.84 103.11 66.79"/><path d="M936.91,519" transform="translate(-708.13 -466.87)"/><circle class="cls-2" cx="235.4" cy="48.93" r="10.09"/><circle class="cls-3" cx="212.49" cy="71.45" r="10.14"/><circle class="cls-4" cx="235.4" cy="94.74" r="10.04"/><circle class="cls-5" cx="257.63" cy="71.45" r="10.18"/><path class="cls-6" d="M827.89,493.68" transform="translate(-708.13 -466.87)"/><path class="cls-6" d="M827.89,493.68" transform="translate(-708.13 -466.87)"/><path class="cls-1" d="M1038,470h5.7v30.72H1038Z" transform="translate(-708.13 -466.87)"/><path class="cls-1" d="M1071.83,479.64c1.78,1.73,2.68,4.29,2.68,7.68v13.43H1069V488a6.56,6.56,0,0,0-1.45-4.63,5.34,5.34,0,0,0-4.12-1.56,6.34,6.34,0,0,0-4.78,1.82,7.29,7.29,0,0,0-1.76,5.25v11.85h-5.48V477.31h5.22v3a8.5,8.5,0,0,1,3.42-2.45,12.27,12.27,0,0,1,4.65-.84A9.78,9.78,0,0,1,1071.83,479.64Z" transform="translate(-708.13 -466.87)"/><path class="cls-1" d="M1104.65,468.19v32.56h-5.27v-3a8.48,8.48,0,0,1-3.35,2.5,11.43,11.43,0,0,1-4.41.83,12.31,12.31,0,0,1-6.08-1.49,10.69,10.69,0,0,1-4.23-4.23,12.62,12.62,0,0,1-1.54-6.3,12.45,12.45,0,0,1,1.54-6.27,10.73,10.73,0,0,1,4.23-4.22,12.42,12.42,0,0,1,6.08-1.49,11.1,11.1,0,0,1,4.26.79,8.71,8.71,0,0,1,3.29,2.37v-12Zm-8.82,27.27a6.51,6.51,0,0,0,2.5-2.57,8.56,8.56,0,0,0,0-7.72,6.51,6.51,0,0,0-2.5-2.57,7.47,7.47,0,0,0-7.11,0,6.58,6.58,0,0,0-2.5,2.57,8.56,8.56,0,0,0,0,7.72,6.58,6.58,0,0,0,2.5,2.57,7.47,7.47,0,0,0,7.11,0Z" transform="translate(-708.13 -466.87)"/><path class="cls-1" d="M1112.11,472.51a3.24,3.24,0,0,1,0-4.7,3.56,3.56,0,0,1,2.5-.94,3.6,3.6,0,0,1,2.5.9,2.87,2.87,0,0,1,1,2.26,3.31,3.31,0,0,1-1,2.44,3.43,3.43,0,0,1-2.52,1A3.52,3.52,0,0,1,1112.11,472.51Zm-.26,4.8h5.48v23.44h-5.48Z" transform="translate(-708.13 -466.87)"/><path class="cls-1" d="M1146.47,490.79h-18.39a6.37,6.37,0,0,0,2.52,4.1,8.27,8.27,0,0,0,5.07,1.51,8.57,8.57,0,0,0,6.37-2.54l2.93,3.37a9.92,9.92,0,0,1-4,2.86,15.88,15.88,0,0,1-12.24-.57,11.1,11.1,0,0,1-4.54-4.28,12.07,12.07,0,0,1-1.6-6.21,12.31,12.31,0,0,1,1.55-6.16,11,11,0,0,1,4.33-4.28,12.54,12.54,0,0,1,6.23-1.54,12.39,12.39,0,0,1,6.12,1.51,10.72,10.72,0,0,1,4.21,4.26,12.9,12.9,0,0,1,1.51,6.34C1146.55,489.54,1146.53,490.08,1146.47,490.79ZM1130.25,483a6.55,6.55,0,0,0-2.21,4.14h13.29a6.44,6.44,0,0,0-2.15-4.12,6.55,6.55,0,0,0-4.47-1.58A6.63,6.63,0,0,0,1130.25,483Z" transform="translate(-708.13 -466.87)"/><path class="cls-1" d="M1058.93,537.69h5.4v12.24a17,17,0,0,1-5.53,2.9,21.32,21.32,0,0,1-6.5,1,17.5,17.5,0,0,1-8.46-2,15.18,15.18,0,0,1-5.93-5.64,16.39,16.39,0,0,1,0-16.23,15.17,15.17,0,0,1,5.95-5.64,17.72,17.72,0,0,1,8.53-2,18.55,18.55,0,0,1,7,1.27,13.72,13.72,0,0,1,5.31,3.73l-3.6,3.51a11.53,11.53,0,0,0-8.46-3.51,11.91,11.91,0,0,0-5.77,1.36,9.88,9.88,0,0,0-4,3.82,11,11,0,0,0-1.43,5.61,10.82,10.82,0,0,0,1.43,5.53,10.11,10.11,0,0,0,4,3.86,11.52,11.52,0,0,0,5.72,1.41,12.38,12.38,0,0,0,6.32-1.58Z" transform="translate(-708.13 -466.87)"/><path class="cls-1" d="M1088.17,532.19q2.74,2.47,2.75,7.48V553.4h-5.18v-2.85a6.38,6.38,0,0,1-2.87,2.34,12.5,12.5,0,0,1-9.11-.08,7.23,7.23,0,0,1-3-2.5,6.34,6.34,0,0,1-1.07-3.62,6.21,6.21,0,0,1,2.34-5.07c1.57-1.27,4-1.91,7.4-1.91h6v-.35a4.78,4.78,0,0,0-1.47-3.77,6.33,6.33,0,0,0-4.36-1.32,12.64,12.64,0,0,0-3.89.61,9.59,9.59,0,0,0-3.22,1.71l-2.15-4a13.45,13.45,0,0,1,4.43-2.15,19.61,19.61,0,0,1,5.48-.74C1083.71,529.71,1086.35,530.53,1088.17,532.19Zm-5,16.58a5.14,5.14,0,0,0,2.26-2.7v-2.72h-5.66q-4.74,0-4.74,3.12a2.81,2.81,0,0,0,1.19,2.37,5.47,5.47,0,0,0,3.29.87A7.07,7.07,0,0,0,1083.17,548.77Z" transform="translate(-708.13 -466.87)"/><path class="cls-1" d="M1134.53,532.27q2.6,2.57,2.59,7.7V553.4h-5.48V540.68a6.88,6.88,0,0,0-1.36-4.63,4.91,4.91,0,0,0-3.91-1.56,5.73,5.73,0,0,0-4.43,1.82,7.44,7.44,0,0,0-1.67,5.2V553.4h-5.48V540.68a6.88,6.88,0,0,0-1.36-4.63,4.91,4.91,0,0,0-3.91-1.56,5.72,5.72,0,0,0-4.45,1.8,7.46,7.46,0,0,0-1.65,5.22V553.4h-5.48V530h5.22v3a8.58,8.58,0,0,1,3.29-2.41,11.12,11.12,0,0,1,4.39-.83,10.57,10.57,0,0,1,4.67,1,7.6,7.6,0,0,1,3.23,2.92,9.61,9.61,0,0,1,3.72-2.87,12.13,12.13,0,0,1,5-1A9.55,9.55,0,0,1,1134.53,532.27Z" transform="translate(-708.13 -466.87)"/><path class="cls-1" d="M1166.3,543.44h-18.39a6.4,6.4,0,0,0,2.53,4.1,8.27,8.27,0,0,0,5.07,1.52,8.54,8.54,0,0,0,6.36-2.55l2.94,3.38a9.91,9.91,0,0,1-4,2.85,14.57,14.57,0,0,1-5.44,1,14.41,14.41,0,0,1-6.8-1.54,11,11,0,0,1-4.54-4.28,12,12,0,0,1-1.6-6.21,12.24,12.24,0,0,1,1.56-6.16,11.11,11.11,0,0,1,4.32-4.28,12.64,12.64,0,0,1,6.23-1.53,12.29,12.29,0,0,1,6.12,1.51,10.72,10.72,0,0,1,4.21,4.26,12.87,12.87,0,0,1,1.52,6.34Q1166.39,542.39,1166.3,543.44Zm-16.21-7.79a6.52,6.52,0,0,0-2.22,4.15h13.3a6.83,6.83,0,0,0-11.08-4.15Z" transform="translate(-708.13 -466.87)"/><path class="cls-1" d="M1173.32,553a14.08,14.08,0,0,1-4.34-1.89l2.1-4.16a13.43,13.43,0,0,0,3.8,1.68,15.5,15.5,0,0,0,4.36.64q4.92,0,4.92-2.59a1.73,1.73,0,0,0-1.25-1.71,21.82,21.82,0,0,0-4-.92,32,32,0,0,1-4.71-1,7.12,7.12,0,0,1-3.16-2,5.53,5.53,0,0,1-1.34-4,6.25,6.25,0,0,1,2.78-5.33,12.71,12.71,0,0,1,7.53-2,22.07,22.07,0,0,1,4.83.54,14,14,0,0,1,4,1.47l-2.11,4.17a13,13,0,0,0-6.71-1.75,7.52,7.52,0,0,0-3.67.72,2.16,2.16,0,0,0-1.25,1.91,1.92,1.92,0,0,0,1.34,1.87,22.19,22.19,0,0,0,4.15,1,31.64,31.64,0,0,1,4.6,1,7.24,7.24,0,0,1,3.1,1.93,5.37,5.37,0,0,1,1.29,3.86,6.1,6.1,0,0,1-2.85,5.26,13.42,13.42,0,0,1-7.77,2A20.84,20.84,0,0,1,1173.32,553Z" transform="translate(-708.13 -466.87)"/><path class="cls-1" d="M1040.61,605.48a14.22,14.22,0,0,1-5.24-2.67l2-4.44a15.47,15.47,0,0,0,4.63,2.44,16.84,16.84,0,0,0,5.51.94,9.54,9.54,0,0,0,5.11-1.09,3.33,3.33,0,0,0,1.69-2.9,2.82,2.82,0,0,0-.94-2.17,6.65,6.65,0,0,0-2.39-1.34c-1-.32-2.29-.69-4-1.1a46.48,46.48,0,0,1-5.69-1.66,9.43,9.43,0,0,1-3.73-2.62,7,7,0,0,1-1.55-4.8,8.2,8.2,0,0,1,1.38-4.63,9.33,9.33,0,0,1,4.17-3.31,16.83,16.83,0,0,1,6.82-1.23,22,22,0,0,1,5.53.7,15.21,15.21,0,0,1,4.69,2l-1.8,4.43a17.69,17.69,0,0,0-4.21-1.8,15.7,15.7,0,0,0-4.25-.61,8.91,8.91,0,0,0-5,1.14,3.51,3.51,0,0,0-1.64,3,2.75,2.75,0,0,0,.94,2.15,6.92,6.92,0,0,0,2.39,1.31c1,.32,2.28.69,4,1.1a42.54,42.54,0,0,1,5.62,1.65,9.64,9.64,0,0,1,3.75,2.61,6.88,6.88,0,0,1,1.56,4.74,8,8,0,0,1-1.39,4.6,9.32,9.32,0,0,1-4.19,3.29,17,17,0,0,1-6.84,1.23A23.22,23.22,0,0,1,1040.61,605.48Z" transform="translate(-708.13 -466.87)"/><path class="cls-1" d="M1079.12,604.78a6.42,6.42,0,0,1-2.35,1.18,10.35,10.35,0,0,1-2.92.4,8.28,8.28,0,0,1-6-2,7.76,7.76,0,0,1-2.1-5.88V587.19h-3.87V582.8h3.87v-5.36h5.48v5.36h6.28v4.39h-6.28v11.14a3.73,3.73,0,0,0,.83,2.61,3.15,3.15,0,0,0,2.42.9,4.83,4.83,0,0,0,3.07-1Z" transform="translate(-708.13 -466.87)"/><path class="cls-1" d="M1106.32,582.62v23.43h-5.22v-3a8.81,8.81,0,0,1-3.29,2.43,10.63,10.63,0,0,1-4.26.86,10.18,10.18,0,0,1-7.39-2.61q-2.7-2.61-2.7-7.75V582.62h5.48v12.64a6.8,6.8,0,0,0,1.43,4.72,5.25,5.25,0,0,0,4.06,1.55,6.11,6.11,0,0,0,4.67-1.82,7.28,7.28,0,0,0,1.73-5.24V582.62Z" transform="translate(-708.13 -466.87)"/><path class="cls-1" d="M1136.46,573.5v32.55h-5.26v-3a8.58,8.58,0,0,1-3.36,2.5,11.43,11.43,0,0,1-4.41.83,12.35,12.35,0,0,1-6.07-1.49,10.74,10.74,0,0,1-4.24-4.24,13.6,13.6,0,0,1,0-12.57,10.73,10.73,0,0,1,4.24-4.21,12.35,12.35,0,0,1,6.07-1.49,11.1,11.1,0,0,1,4.26.79,8.5,8.5,0,0,1,3.29,2.37v-12Zm-8.82,27.27a6.44,6.44,0,0,0,2.5-2.57,8.48,8.48,0,0,0,0-7.72,6.38,6.38,0,0,0-2.5-2.57,7.45,7.45,0,0,0-7.1,0,6.38,6.38,0,0,0-2.5,2.57,8.48,8.48,0,0,0,0,7.72,6.44,6.44,0,0,0,2.5,2.57,7.45,7.45,0,0,0,7.1,0Z" transform="translate(-708.13 -466.87)"/><path class="cls-1" d="M1143.92,577.82a3.24,3.24,0,0,1,0-4.7,3.53,3.53,0,0,1,2.5-.94,3.6,3.6,0,0,1,2.5.9,2.87,2.87,0,0,1,1,2.26,3.28,3.28,0,0,1-1,2.43,3.42,3.42,0,0,1-2.53,1A3.53,3.53,0,0,1,1143.92,577.82Zm-.26,4.8h5.48v23.43h-5.48Z" transform="translate(-708.13 -466.87)"/><path class="cls-1" d="M1160.46,604.82a11.22,11.22,0,0,1-4.45-4.27,12.07,12.07,0,0,1-1.6-6.21,12,12,0,0,1,1.6-6.19,11.33,11.33,0,0,1,4.45-4.26,14.28,14.28,0,0,1,12.86,0,11.27,11.27,0,0,1,4.45,4.26,12,12,0,0,1,1.61,6.19,12.08,12.08,0,0,1-1.61,6.21,11.16,11.16,0,0,1-4.45,4.27,14.19,14.19,0,0,1-12.86,0Zm11.41-5.17a8.11,8.11,0,0,0,0-10.62,7.17,7.17,0,0,0-10,0,8.2,8.2,0,0,0,0,10.62,7.17,7.17,0,0,0,10,0Z" transform="translate(-708.13 -466.87)"/></svg>